<mxfile host="Electron" modified="2023-12-19T21:17:57.614Z" agent="Mozilla/5.0 (Windows NT 10.0; Win64; x64) AppleWebKit/537.36 (KHTML, like Gecko) draw.io/22.1.11 Chrome/114.0.5735.289 Electron/25.9.8 Safari/537.36" etag="h96KvPDO9Cyk2nA92S9J" version="22.1.11" type="device">
  <diagram id="axaJpA255Qp3xF8ieOo0" name="Dominio Transitos">
    <mxGraphModel dx="2620" dy="669" grid="1" gridSize="10" guides="1" tooltips="1" connect="1" arrows="1" fold="1" page="1" pageScale="1" pageWidth="1169" pageHeight="827" math="0" shadow="0">
      <root>
        <mxCell id="0" />
        <mxCell id="1" parent="0" />
        <mxCell id="pYLswrqZYhPvGG6OncnL-1" value="&amp;lt;entidad&amp;gt;&lt;br&gt;&lt;b&gt;Cliente&lt;/b&gt;" style="swimlane;fontStyle=0;align=center;verticalAlign=top;childLayout=stackLayout;horizontal=1;startSize=40;horizontalStack=0;resizeParent=1;resizeParentMax=0;resizeLast=0;collapsible=0;marginBottom=0;html=1;fillColor=#E6FFCC;" parent="1" vertex="1">
          <mxGeometry x="-330" y="90" width="590" height="460" as="geometry" />
        </mxCell>
        <mxCell id="pYLswrqZYhPvGG6OncnL-85" value="Entidad que describe los datos personales de una persona." style="text;html=1;strokeColor=none;fillColor=none;align=left;verticalAlign=middle;spacingLeft=4;spacingRight=4;overflow=hidden;rotatable=0;points=[[0,0.5],[1,0.5]];portConstraint=eastwest;" parent="pYLswrqZYhPvGG6OncnL-1" vertex="1">
          <mxGeometry y="40" width="590" height="20" as="geometry" />
        </mxCell>
        <mxCell id="pYLswrqZYhPvGG6OncnL-84" value="" style="line;strokeWidth=1;fillColor=none;align=left;verticalAlign=middle;spacingTop=-1;spacingLeft=3;spacingRight=3;rotatable=0;labelPosition=right;points=[];portConstraint=eastwest;" parent="pYLswrqZYhPvGG6OncnL-1" vertex="1">
          <mxGeometry y="60" width="590" height="8" as="geometry" />
        </mxCell>
        <mxCell id="pYLswrqZYhPvGG6OncnL-2" value="&lt;b&gt;Atributos&lt;/b&gt;" style="text;html=1;strokeColor=none;fillColor=none;align=center;verticalAlign=middle;spacingLeft=4;spacingRight=4;overflow=hidden;rotatable=0;points=[[0,0.5],[1,0.5]];portConstraint=eastwest;" parent="pYLswrqZYhPvGG6OncnL-1" vertex="1">
          <mxGeometry y="68" width="590" height="20" as="geometry" />
        </mxCell>
        <mxCell id="JHnltL8-nJGzwgej-gKU-2" value="Id - Guid - Sirve como identificador único, generado automaticamente." style="text;html=1;strokeColor=none;fillColor=none;align=left;verticalAlign=middle;spacingLeft=4;spacingRight=4;overflow=hidden;rotatable=0;points=[[0,0.5],[1,0.5]];portConstraint=eastwest;" parent="pYLswrqZYhPvGG6OncnL-1" vertex="1">
          <mxGeometry y="88" width="590" height="20" as="geometry" />
        </mxCell>
        <mxCell id="pYLswrqZYhPvGG6OncnL-11" value="Rut - Texto - Identificador único nacional." style="text;html=1;strokeColor=none;fillColor=none;align=left;verticalAlign=middle;spacingLeft=4;spacingRight=4;overflow=hidden;rotatable=0;points=[[0,0.5],[1,0.5]];portConstraint=eastwest;" parent="pYLswrqZYhPvGG6OncnL-1" vertex="1">
          <mxGeometry y="108" width="590" height="20" as="geometry" />
        </mxCell>
        <mxCell id="EbXu0sz_ChYEm4_ZpIHF-2" value="Nombre&amp;nbsp;- Texto - Nombre de la persona." style="text;html=1;strokeColor=none;fillColor=none;align=left;verticalAlign=middle;spacingLeft=4;spacingRight=4;overflow=hidden;rotatable=0;points=[[0,0.5],[1,0.5]];portConstraint=eastwest;" vertex="1" parent="pYLswrqZYhPvGG6OncnL-1">
          <mxGeometry y="128" width="590" height="20" as="geometry" />
        </mxCell>
        <mxCell id="EbXu0sz_ChYEm4_ZpIHF-1" value="ApellidoPaterno&amp;nbsp;- Texto - Apellido paterno de la persona." style="text;html=1;strokeColor=none;fillColor=none;align=left;verticalAlign=middle;spacingLeft=4;spacingRight=4;overflow=hidden;rotatable=0;points=[[0,0.5],[1,0.5]];portConstraint=eastwest;" vertex="1" parent="pYLswrqZYhPvGG6OncnL-1">
          <mxGeometry y="148" width="590" height="20" as="geometry" />
        </mxCell>
        <mxCell id="EbXu0sz_ChYEm4_ZpIHF-5" value="ApellidoMaterno&amp;nbsp;- Texto -Apellido materno de la persona." style="text;html=1;strokeColor=none;fillColor=none;align=left;verticalAlign=middle;spacingLeft=4;spacingRight=4;overflow=hidden;rotatable=0;points=[[0,0.5],[1,0.5]];portConstraint=eastwest;" vertex="1" parent="pYLswrqZYhPvGG6OncnL-1">
          <mxGeometry y="168" width="590" height="20" as="geometry" />
        </mxCell>
        <mxCell id="EbXu0sz_ChYEm4_ZpIHF-4" value="FechaNacimiento - Fecha - Fecha de nacimiento de la persona." style="text;html=1;strokeColor=none;fillColor=none;align=left;verticalAlign=middle;spacingLeft=4;spacingRight=4;overflow=hidden;rotatable=0;points=[[0,0.5],[1,0.5]];portConstraint=eastwest;" vertex="1" parent="pYLswrqZYhPvGG6OncnL-1">
          <mxGeometry y="188" width="590" height="20" as="geometry" />
        </mxCell>
        <mxCell id="EbXu0sz_ChYEm4_ZpIHF-3" value="Sexo - Texto - Sexo de la persona." style="text;html=1;strokeColor=none;fillColor=none;align=left;verticalAlign=middle;spacingLeft=4;spacingRight=4;overflow=hidden;rotatable=0;points=[[0,0.5],[1,0.5]];portConstraint=eastwest;" vertex="1" parent="pYLswrqZYhPvGG6OncnL-1">
          <mxGeometry y="208" width="590" height="20" as="geometry" />
        </mxCell>
        <mxCell id="pYLswrqZYhPvGG6OncnL-6" value="" style="line;strokeWidth=1;fillColor=none;align=left;verticalAlign=middle;spacingTop=-1;spacingLeft=3;spacingRight=3;rotatable=0;labelPosition=right;points=[];portConstraint=eastwest;" parent="pYLswrqZYhPvGG6OncnL-1" vertex="1">
          <mxGeometry y="228" width="590" height="8" as="geometry" />
        </mxCell>
        <mxCell id="pYLswrqZYhPvGG6OncnL-7" value="&lt;b&gt;&lt;i&gt;Operaciones&lt;/i&gt;&lt;/b&gt;" style="text;html=1;strokeColor=none;fillColor=none;align=center;verticalAlign=middle;spacingLeft=4;spacingRight=4;overflow=hidden;rotatable=0;points=[[0,0.5],[1,0.5]];portConstraint=eastwest;" parent="pYLswrqZYhPvGG6OncnL-1" vertex="1">
          <mxGeometry y="236" width="590" height="20" as="geometry" />
        </mxCell>
        <mxCell id="pYLswrqZYhPvGG6OncnL-16" value="" style="line;strokeWidth=1;fillColor=none;align=left;verticalAlign=middle;spacingTop=-1;spacingLeft=3;spacingRight=3;rotatable=0;labelPosition=right;points=[];portConstraint=eastwest;" parent="pYLswrqZYhPvGG6OncnL-1" vertex="1">
          <mxGeometry y="256" width="590" height="8" as="geometry" />
        </mxCell>
        <mxCell id="pYLswrqZYhPvGG6OncnL-18" value="&lt;b&gt;Comandos&lt;/b&gt;" style="text;html=1;strokeColor=none;fillColor=none;align=center;verticalAlign=middle;spacingLeft=4;spacingRight=4;overflow=hidden;rotatable=0;points=[[0,0.5],[1,0.5]];portConstraint=eastwest;" parent="pYLswrqZYhPvGG6OncnL-1" vertex="1">
          <mxGeometry y="264" width="590" height="20" as="geometry" />
        </mxCell>
        <mxCell id="EbXu0sz_ChYEm4_ZpIHF-32" value="&lt;div&gt;Crear (rut, nombre, apellidoPaterno, apellidoMaterno, fechaNacimiento, sexo&lt;span style=&quot;background-color: initial;&quot;&gt;) : Verdadero/Falso&lt;/span&gt;&lt;/div&gt;" style="text;html=1;strokeColor=none;fillColor=none;align=left;verticalAlign=middle;spacingLeft=4;spacingRight=4;overflow=hidden;rotatable=0;points=[[0,0.5],[1,0.5]];portConstraint=eastwest;" vertex="1" parent="pYLswrqZYhPvGG6OncnL-1">
          <mxGeometry y="284" width="590" height="16" as="geometry" />
        </mxCell>
        <mxCell id="EbXu0sz_ChYEm4_ZpIHF-34" value="&lt;div&gt;Modificar (id, rut, nombre, apellidoPaterno, apellidoMaterno, fechaNacimiento, sexo&lt;span style=&quot;background-color: initial;&quot;&gt;) : Verdadero/Falso&lt;/span&gt;&lt;/div&gt;" style="text;html=1;strokeColor=none;fillColor=none;align=left;verticalAlign=middle;spacingLeft=4;spacingRight=4;overflow=hidden;rotatable=0;points=[[0,0.5],[1,0.5]];portConstraint=eastwest;" vertex="1" parent="pYLswrqZYhPvGG6OncnL-1">
          <mxGeometry y="300" width="590" height="16" as="geometry" />
        </mxCell>
        <mxCell id="EbXu0sz_ChYEm4_ZpIHF-35" value="&lt;div&gt;Eliminar (id&lt;span style=&quot;background-color: initial;&quot;&gt;) : Verdadero/Falso&lt;/span&gt;&lt;/div&gt;" style="text;html=1;strokeColor=none;fillColor=none;align=left;verticalAlign=middle;spacingLeft=4;spacingRight=4;overflow=hidden;rotatable=0;points=[[0,0.5],[1,0.5]];portConstraint=eastwest;" vertex="1" parent="pYLswrqZYhPvGG6OncnL-1">
          <mxGeometry y="316" width="590" height="16" as="geometry" />
        </mxCell>
        <mxCell id="pYLswrqZYhPvGG6OncnL-17" value="" style="line;strokeWidth=1;fillColor=none;align=left;verticalAlign=middle;spacingTop=-1;spacingLeft=3;spacingRight=3;rotatable=0;labelPosition=right;points=[];portConstraint=eastwest;" parent="pYLswrqZYhPvGG6OncnL-1" vertex="1">
          <mxGeometry y="332" width="590" height="8" as="geometry" />
        </mxCell>
        <mxCell id="pYLswrqZYhPvGG6OncnL-20" value="&lt;b&gt;Consultas&lt;/b&gt;" style="text;html=1;strokeColor=none;fillColor=none;align=center;verticalAlign=middle;spacingLeft=4;spacingRight=4;overflow=hidden;rotatable=0;points=[[0,0.5],[1,0.5]];portConstraint=eastwest;" parent="pYLswrqZYhPvGG6OncnL-1" vertex="1">
          <mxGeometry y="340" width="590" height="20" as="geometry" />
        </mxCell>
        <mxCell id="EbXu0sz_ChYEm4_ZpIHF-28" value="BuscaPorId(id) : &amp;lt;Persona&amp;gt;" style="text;html=1;strokeColor=none;fillColor=none;align=left;verticalAlign=middle;spacingLeft=4;spacingRight=4;overflow=hidden;rotatable=0;points=[[0,0.5],[1,0.5]];portConstraint=eastwest;" vertex="1" parent="pYLswrqZYhPvGG6OncnL-1">
          <mxGeometry y="360" width="590" height="20" as="geometry" />
        </mxCell>
        <mxCell id="pYLswrqZYhPvGG6OncnL-19" value="BuscaPorRut(rut) : &amp;lt;Persona&amp;gt;" style="text;html=1;strokeColor=none;fillColor=none;align=left;verticalAlign=middle;spacingLeft=4;spacingRight=4;overflow=hidden;rotatable=0;points=[[0,0.5],[1,0.5]];portConstraint=eastwest;" parent="pYLswrqZYhPvGG6OncnL-1" vertex="1">
          <mxGeometry y="380" width="590" height="20" as="geometry" />
        </mxCell>
        <mxCell id="jItyzTxoOIZ2TyoVM4FB-1" value="BuscaPorNombreCoincidencias (nombre) : Lista&amp;lt;Persona&amp;gt;" style="text;html=1;strokeColor=none;fillColor=none;align=left;verticalAlign=middle;spacingLeft=4;spacingRight=4;overflow=hidden;rotatable=0;points=[[0,0.5],[1,0.5]];portConstraint=eastwest;" parent="pYLswrqZYhPvGG6OncnL-1" vertex="1">
          <mxGeometry y="400" width="590" height="20" as="geometry" />
        </mxCell>
        <mxCell id="EbXu0sz_ChYEm4_ZpIHF-30" value="BuscaPorApellidoPaternoCoincidencias (apellidoPaterno) : Lista&amp;lt;Persona&amp;gt;" style="text;html=1;strokeColor=none;fillColor=none;align=left;verticalAlign=middle;spacingLeft=4;spacingRight=4;overflow=hidden;rotatable=0;points=[[0,0.5],[1,0.5]];portConstraint=eastwest;" vertex="1" parent="pYLswrqZYhPvGG6OncnL-1">
          <mxGeometry y="420" width="590" height="20" as="geometry" />
        </mxCell>
        <mxCell id="EbXu0sz_ChYEm4_ZpIHF-31" value="BuscaPorApellidoMaternoCoincidencias (apellidoMaterno) : Lista&amp;lt;Persona&amp;gt;" style="text;html=1;strokeColor=none;fillColor=none;align=left;verticalAlign=middle;spacingLeft=4;spacingRight=4;overflow=hidden;rotatable=0;points=[[0,0.5],[1,0.5]];portConstraint=eastwest;" vertex="1" parent="pYLswrqZYhPvGG6OncnL-1">
          <mxGeometry y="440" width="590" height="20" as="geometry" />
        </mxCell>
        <mxCell id="pYLswrqZYhPvGG6OncnL-24" value="&lt;h1&gt;&lt;b&gt;&lt;font style=&quot;font-size: 24px;&quot;&gt;Dominio : Persona&lt;/font&gt;&lt;/b&gt;&lt;/h1&gt;" style="text;html=1;strokeColor=none;fillColor=none;align=center;verticalAlign=middle;whiteSpace=wrap;rounded=0;" parent="1" vertex="1">
          <mxGeometry x="-200" y="30" width="310" height="30" as="geometry" />
        </mxCell>
        <mxCell id="sDX3-OLwFtqE5IQQ1U1f-1" value=".." style="text;html=1;strokeColor=none;fillColor=none;align=center;verticalAlign=middle;whiteSpace=wrap;rounded=0;" parent="1" vertex="1">
          <mxGeometry x="-1140" y="20" width="20" height="30" as="geometry" />
        </mxCell>
        <mxCell id="ojsnW5uk8s9jWQKCF5yM-29" style="edgeStyle=orthogonalEdgeStyle;rounded=0;orthogonalLoop=1;jettySize=auto;html=1;entryX=0;entryY=0.5;entryDx=0;entryDy=0;" parent="1" source="ojsnW5uk8s9jWQKCF5yM-25" target="EbXu0sz_ChYEm4_ZpIHF-3" edge="1">
          <mxGeometry relative="1" as="geometry">
            <mxPoint x="-814.3399999999997" y="539.46" as="targetPoint" />
          </mxGeometry>
        </mxCell>
        <mxCell id="ojsnW5uk8s9jWQKCF5yM-25" value="&amp;lt;Enumeración&amp;gt;&lt;br&gt;SexoEnum" style="swimlane;fontStyle=0;align=center;verticalAlign=top;childLayout=stackLayout;horizontal=1;startSize=40;horizontalStack=0;resizeParent=1;resizeParentMax=0;resizeLast=0;collapsible=0;marginBottom=0;html=1;fillColor=#CCCCFF;" parent="1" vertex="1">
          <mxGeometry x="-584" y="268" width="170" height="80" as="geometry" />
        </mxCell>
        <mxCell id="EbXu0sz_ChYEm4_ZpIHF-63" value="MASCULINO" style="text;html=1;strokeColor=none;fillColor=none;align=left;verticalAlign=middle;spacingLeft=4;spacingRight=4;overflow=hidden;rotatable=0;points=[[0,0.5],[1,0.5]];portConstraint=eastwest;" vertex="1" parent="ojsnW5uk8s9jWQKCF5yM-25">
          <mxGeometry y="40" width="170" height="20" as="geometry" />
        </mxCell>
        <mxCell id="EbXu0sz_ChYEm4_ZpIHF-64" value="FEMENINO" style="text;html=1;strokeColor=none;fillColor=none;align=left;verticalAlign=middle;spacingLeft=4;spacingRight=4;overflow=hidden;rotatable=0;points=[[0,0.5],[1,0.5]];portConstraint=eastwest;" vertex="1" parent="ojsnW5uk8s9jWQKCF5yM-25">
          <mxGeometry y="60" width="170" height="20" as="geometry" />
        </mxCell>
        <mxCell id="EbXu0sz_ChYEm4_ZpIHF-36" value="&amp;lt;entidad&amp;gt;&lt;br&gt;&lt;b&gt;Contacto&lt;/b&gt;" style="swimlane;fontStyle=0;align=center;verticalAlign=top;childLayout=stackLayout;horizontal=1;startSize=40;horizontalStack=0;resizeParent=1;resizeParentMax=0;resizeLast=0;collapsible=0;marginBottom=0;html=1;fillColor=#E6FFCC;" vertex="1" parent="1">
          <mxGeometry x="320" y="90" width="480" height="360" as="geometry" />
        </mxCell>
        <mxCell id="EbXu0sz_ChYEm4_ZpIHF-37" value="Entidad que describe los datos personales de una persona." style="text;html=1;strokeColor=none;fillColor=none;align=left;verticalAlign=middle;spacingLeft=4;spacingRight=4;overflow=hidden;rotatable=0;points=[[0,0.5],[1,0.5]];portConstraint=eastwest;" vertex="1" parent="EbXu0sz_ChYEm4_ZpIHF-36">
          <mxGeometry y="40" width="480" height="20" as="geometry" />
        </mxCell>
        <mxCell id="EbXu0sz_ChYEm4_ZpIHF-38" value="" style="line;strokeWidth=1;fillColor=none;align=left;verticalAlign=middle;spacingTop=-1;spacingLeft=3;spacingRight=3;rotatable=0;labelPosition=right;points=[];portConstraint=eastwest;" vertex="1" parent="EbXu0sz_ChYEm4_ZpIHF-36">
          <mxGeometry y="60" width="480" height="8" as="geometry" />
        </mxCell>
        <mxCell id="EbXu0sz_ChYEm4_ZpIHF-39" value="&lt;b&gt;Atributos&lt;/b&gt;" style="text;html=1;strokeColor=none;fillColor=none;align=center;verticalAlign=middle;spacingLeft=4;spacingRight=4;overflow=hidden;rotatable=0;points=[[0,0.5],[1,0.5]];portConstraint=eastwest;" vertex="1" parent="EbXu0sz_ChYEm4_ZpIHF-36">
          <mxGeometry y="68" width="480" height="20" as="geometry" />
        </mxCell>
        <mxCell id="EbXu0sz_ChYEm4_ZpIHF-40" value="Id - Guid&amp;nbsp;- Sirve como identificador único, generado automaticamente." style="text;html=1;strokeColor=none;fillColor=none;align=left;verticalAlign=middle;spacingLeft=4;spacingRight=4;overflow=hidden;rotatable=0;points=[[0,0.5],[1,0.5]];portConstraint=eastwest;" vertex="1" parent="EbXu0sz_ChYEm4_ZpIHF-36">
          <mxGeometry y="88" width="480" height="20" as="geometry" />
        </mxCell>
        <mxCell id="EbXu0sz_ChYEm4_ZpIHF-61" value="IdPersona - Guid - Sirve como el identificador único, asociado a una persona." style="text;html=1;strokeColor=none;fillColor=none;align=left;verticalAlign=middle;spacingLeft=4;spacingRight=4;overflow=hidden;rotatable=0;points=[[0,0.5],[1,0.5]];portConstraint=eastwest;" vertex="1" parent="EbXu0sz_ChYEm4_ZpIHF-36">
          <mxGeometry y="108" width="480" height="20" as="geometry" />
        </mxCell>
        <mxCell id="EbXu0sz_ChYEm4_ZpIHF-65" value="Celular - Texto - Celular particular de la persona." style="text;html=1;strokeColor=none;fillColor=none;align=left;verticalAlign=middle;spacingLeft=4;spacingRight=4;overflow=hidden;rotatable=0;points=[[0,0.5],[1,0.5]];portConstraint=eastwest;" vertex="1" parent="EbXu0sz_ChYEm4_ZpIHF-36">
          <mxGeometry y="128" width="480" height="20" as="geometry" />
        </mxCell>
        <mxCell id="EbXu0sz_ChYEm4_ZpIHF-67" value="Correo - Texto - Correo electrónico particular de la persona." style="text;html=1;strokeColor=none;fillColor=none;align=left;verticalAlign=middle;spacingLeft=4;spacingRight=4;overflow=hidden;rotatable=0;points=[[0,0.5],[1,0.5]];portConstraint=eastwest;" vertex="1" parent="EbXu0sz_ChYEm4_ZpIHF-36">
          <mxGeometry y="148" width="480" height="20" as="geometry" />
        </mxCell>
        <mxCell id="EbXu0sz_ChYEm4_ZpIHF-66" value="Direccion - Texto - Dirección particular de la persona." style="text;html=1;strokeColor=none;fillColor=none;align=left;verticalAlign=middle;spacingLeft=4;spacingRight=4;overflow=hidden;rotatable=0;points=[[0,0.5],[1,0.5]];portConstraint=eastwest;" vertex="1" parent="EbXu0sz_ChYEm4_ZpIHF-36">
          <mxGeometry y="168" width="480" height="20" as="geometry" />
        </mxCell>
        <mxCell id="EbXu0sz_ChYEm4_ZpIHF-47" value="" style="line;strokeWidth=1;fillColor=none;align=left;verticalAlign=middle;spacingTop=-1;spacingLeft=3;spacingRight=3;rotatable=0;labelPosition=right;points=[];portConstraint=eastwest;" vertex="1" parent="EbXu0sz_ChYEm4_ZpIHF-36">
          <mxGeometry y="188" width="480" height="8" as="geometry" />
        </mxCell>
        <mxCell id="EbXu0sz_ChYEm4_ZpIHF-48" value="&lt;b&gt;&lt;i&gt;Operaciones&lt;/i&gt;&lt;/b&gt;" style="text;html=1;strokeColor=none;fillColor=none;align=center;verticalAlign=middle;spacingLeft=4;spacingRight=4;overflow=hidden;rotatable=0;points=[[0,0.5],[1,0.5]];portConstraint=eastwest;" vertex="1" parent="EbXu0sz_ChYEm4_ZpIHF-36">
          <mxGeometry y="196" width="480" height="20" as="geometry" />
        </mxCell>
        <mxCell id="EbXu0sz_ChYEm4_ZpIHF-49" value="" style="line;strokeWidth=1;fillColor=none;align=left;verticalAlign=middle;spacingTop=-1;spacingLeft=3;spacingRight=3;rotatable=0;labelPosition=right;points=[];portConstraint=eastwest;" vertex="1" parent="EbXu0sz_ChYEm4_ZpIHF-36">
          <mxGeometry y="216" width="480" height="8" as="geometry" />
        </mxCell>
        <mxCell id="EbXu0sz_ChYEm4_ZpIHF-50" value="&lt;b&gt;Comandos&lt;/b&gt;" style="text;html=1;strokeColor=none;fillColor=none;align=center;verticalAlign=middle;spacingLeft=4;spacingRight=4;overflow=hidden;rotatable=0;points=[[0,0.5],[1,0.5]];portConstraint=eastwest;" vertex="1" parent="EbXu0sz_ChYEm4_ZpIHF-36">
          <mxGeometry y="224" width="480" height="20" as="geometry" />
        </mxCell>
        <mxCell id="EbXu0sz_ChYEm4_ZpIHF-51" value="&lt;div&gt;Crear (idPersona, celular, correo, direccion&lt;span style=&quot;background-color: initial;&quot;&gt;) : Verdadero/Falso&lt;/span&gt;&lt;/div&gt;" style="text;html=1;strokeColor=none;fillColor=none;align=left;verticalAlign=middle;spacingLeft=4;spacingRight=4;overflow=hidden;rotatable=0;points=[[0,0.5],[1,0.5]];portConstraint=eastwest;" vertex="1" parent="EbXu0sz_ChYEm4_ZpIHF-36">
          <mxGeometry y="244" width="480" height="16" as="geometry" />
        </mxCell>
        <mxCell id="EbXu0sz_ChYEm4_ZpIHF-52" value="&lt;div&gt;Modificar (id, idPersona, celular, correo, direccion&lt;span style=&quot;background-color: initial;&quot;&gt;) : Verdadero/Falso&lt;/span&gt;&lt;/div&gt;" style="text;html=1;strokeColor=none;fillColor=none;align=left;verticalAlign=middle;spacingLeft=4;spacingRight=4;overflow=hidden;rotatable=0;points=[[0,0.5],[1,0.5]];portConstraint=eastwest;" vertex="1" parent="EbXu0sz_ChYEm4_ZpIHF-36">
          <mxGeometry y="260" width="480" height="16" as="geometry" />
        </mxCell>
        <mxCell id="EbXu0sz_ChYEm4_ZpIHF-53" value="&lt;div&gt;Eliminar (id&lt;span style=&quot;background-color: initial;&quot;&gt;) : Verdadero/Falso&lt;/span&gt;&lt;/div&gt;" style="text;html=1;strokeColor=none;fillColor=none;align=left;verticalAlign=middle;spacingLeft=4;spacingRight=4;overflow=hidden;rotatable=0;points=[[0,0.5],[1,0.5]];portConstraint=eastwest;" vertex="1" parent="EbXu0sz_ChYEm4_ZpIHF-36">
          <mxGeometry y="276" width="480" height="16" as="geometry" />
        </mxCell>
        <mxCell id="EbXu0sz_ChYEm4_ZpIHF-54" value="" style="line;strokeWidth=1;fillColor=none;align=left;verticalAlign=middle;spacingTop=-1;spacingLeft=3;spacingRight=3;rotatable=0;labelPosition=right;points=[];portConstraint=eastwest;" vertex="1" parent="EbXu0sz_ChYEm4_ZpIHF-36">
          <mxGeometry y="292" width="480" height="8" as="geometry" />
        </mxCell>
        <mxCell id="EbXu0sz_ChYEm4_ZpIHF-55" value="&lt;b&gt;Consultas&lt;/b&gt;" style="text;html=1;strokeColor=none;fillColor=none;align=center;verticalAlign=middle;spacingLeft=4;spacingRight=4;overflow=hidden;rotatable=0;points=[[0,0.5],[1,0.5]];portConstraint=eastwest;" vertex="1" parent="EbXu0sz_ChYEm4_ZpIHF-36">
          <mxGeometry y="300" width="480" height="20" as="geometry" />
        </mxCell>
        <mxCell id="EbXu0sz_ChYEm4_ZpIHF-56" value="BuscaPorId(id) : &amp;lt;Contacto&amp;gt;" style="text;html=1;strokeColor=none;fillColor=none;align=left;verticalAlign=middle;spacingLeft=4;spacingRight=4;overflow=hidden;rotatable=0;points=[[0,0.5],[1,0.5]];portConstraint=eastwest;" vertex="1" parent="EbXu0sz_ChYEm4_ZpIHF-36">
          <mxGeometry y="320" width="480" height="20" as="geometry" />
        </mxCell>
        <mxCell id="EbXu0sz_ChYEm4_ZpIHF-57" value="BuscaPorIdPersona(idPersona) : &amp;lt;Contacto&amp;gt;" style="text;html=1;strokeColor=none;fillColor=none;align=left;verticalAlign=middle;spacingLeft=4;spacingRight=4;overflow=hidden;rotatable=0;points=[[0,0.5],[1,0.5]];portConstraint=eastwest;" vertex="1" parent="EbXu0sz_ChYEm4_ZpIHF-36">
          <mxGeometry y="340" width="480" height="20" as="geometry" />
        </mxCell>
      </root>
    </mxGraphModel>
  </diagram>
</mxfile>
